<svg id="Layer_1" data-name="Layer 1" xmlns="http://www.w3.org/2000/svg" viewBox="0 0 182 51">
<defs>
    <style>
        .cls-1 {
        fill: none;
        stroke: #000;
        stroke-linecap: round;
        stroke-width: 8px;
        }
    </style>
</defs>
<g>
    <path class="cls-1" d="M36,15v32"/>
    <path class="cls-1" d="M4,15v32"/>
    <path class="cls-1" d="M19.99,15v32"/>
</g>
<g>
    <path class="cls-1" d="M51.05,47v-16"/>
    <path class="cls-1" d="M54.05,4h26"/>
    <path class="cls-1" d="M67.05,15c-16.8,0-16,16-16,16"/>
    <path class="cls-1" d="M84.05,47v-16"/>
    <path class="cls-1" d="M68.05,15c16.8,0,16,16,16,16"/>
</g>
<g>
    <path class="cls-1" d="M113.53,15c-15.75,0-15,16-15,16"/>
    <path class="cls-1" d="M130.52,47v-16"/>
    <path class="cls-1" d="M114.52,15c15.74,0,14.99,16,14.99,16"/>
    <path class="cls-1" d="M113.53,47c-15.75,0-15-16-15-16"/>
    <path class="cls-1" d="M130.52,15v16"/>
    <path class="cls-1" d="M114.52,47c15.74,0,14.99-16,14.99-16"/>
</g>
<g>
    <path class="cls-1" d="M178,15v32"/>
    <path class="cls-1" d="M146,15v32"/>
    <path class="cls-1" d="M161.99,15v32"/>
</g>
</svg>